HIERARCHY
ROOT Bone
{
	OFFSET 0.000000 0.000000 0.000000
	CHANNELS 6 Xposition Yposition Zposition Xrotation Yrotation Zrotation
	JOINT Bone.001
	{
		OFFSET 0.000000 0.000000 1.000000
		CHANNELS 3 Xrotation Yrotation Zrotation
		JOINT Bone.002
		{
			OFFSET -0.581564 -0.400096 0.743607
			CHANNELS 3 Xrotation Yrotation Zrotation
			End Site
			{
				OFFSET -0.114336 0.321951 0.973345
			}
		}
	}
}
MOTION
Frames: 50
Frame Time: 0.041667
0.000000 0.000000 0.000000 -1.028923 -0.038271 0.067518 -21.268728 42.393734 -9.617243 -0.544635 -9.965607 40.660748 
0.000000 0.000000 0.000000 -0.721365 -0.149946 0.266202 -21.048468 42.340408 -9.752766 -1.753887 -9.528800 38.906311 
0.000000 0.000000 0.000000 -0.219488 -0.329588 0.591160 -20.691256 42.252903 -9.972161 -3.662676 -8.752695 36.117060 
0.000000 0.000000 0.000000 0.469162 -0.570855 1.038518 -20.205549 42.131930 -10.269739 -6.171959 -7.561901 32.404367 
0.000000 0.000000 0.000000 1.337828 -0.866575 1.605165 -19.600006 41.977858 -10.639520 -9.161289 -5.868513 27.894501 
0.000000 0.000000 0.000000 2.380282 -1.208789 2.288502 -18.883509 41.790871 -11.075241 -12.483384 -3.592782 22.736149 
0.000000 0.000000 0.000000 3.590560 -1.588796 3.086188 -18.065128 41.571024 -11.570470 -15.967133 -0.685916 17.099589 
0.000000 0.000000 0.000000 4.962699 -1.997198 3.995878 -17.154066 41.318331 -12.118594 -19.430150 2.849205 11.166387 
0.000000 0.000000 0.000000 6.490468 -2.423972 5.014967 -16.159630 41.032850 -12.712892 -22.698020 6.945754 5.112983 
0.000000 0.000000 0.000000 8.167105 -2.858566 6.140332 -15.091187 40.714775 -13.346597 -25.624045 11.474512 -0.905549 
0.000000 0.000000 0.000000 9.985068 -3.290034 7.368084 -13.958117 40.364413 -14.012975 -28.103380 16.259878 -6.765255 
0.000000 0.000000 0.000000 11.935782 -3.707218 8.693332 -12.769750 39.982343 -14.705314 -30.078811 21.105303 -12.373831 
0.000000 0.000000 0.000000 14.009459 -4.098975 10.109986 -11.535306 39.569383 -15.417079 -31.539481 25.819906 -17.663086 
0.000000 0.000000 0.000000 16.194923 -4.454450 11.610604 -10.263878 39.126681 -16.141900 -32.515447 30.238945 -22.577081 
0.000000 0.000000 0.000000 18.479531 -4.763375 13.186303 -8.964335 38.655684 -16.873695 -33.070905 34.234401 -27.059475 
0.000000 0.000000 0.000000 20.849137 -5.016415 14.826725 -7.645266 38.158197 -17.606665 -33.297712 37.715717 -31.042868 
0.000000 0.000000 0.000000 23.288172 -5.205484 16.520126 -6.314973 37.636361 -18.335411 -33.308568 40.623298 -34.441372 
0.000000 0.000000 0.000000 25.779810 -5.324080 18.253529 -4.981411 37.092671 -19.054928 -33.229615 42.917408 -37.147309 
0.000000 0.000000 0.000000 28.306210 -5.367543 20.012970 -3.652143 36.529931 -19.760637 -33.190413 44.564379 -39.031642 
0.000000 0.000000 0.000000 30.848853 -5.333273 21.783826 -2.334345 35.951257 -20.448447 -33.310775 45.520827 -39.947676 
0.000000 0.000000 0.000000 33.388929 -5.220855 23.551213 -1.034771 35.360081 -21.114755 -32.640613 45.666559 -40.536483 
0.000000 0.000000 0.000000 35.907694 -5.032071 25.300334 0.240230 34.760025 -21.756393 -30.239385 44.931638 -41.503180 
0.000000 0.000000 0.000000 38.386957 -4.770849 27.016943 1.484708 34.154996 -22.370695 -26.234400 43.284288 -42.707527 
0.000000 0.000000 0.000000 40.809315 -4.443085 28.687618 2.693091 33.549046 -22.955443 -20.766762 40.652630 -43.912461 
0.000000 0.000000 0.000000 43.158586 -4.056402 30.300140 3.860205 32.946374 -23.508828 -13.980927 36.961999 -44.802684 
0.000000 0.000000 0.000000 45.419894 -3.619864 31.843629 4.981165 32.351297 -24.029435 -6.005189 32.189445 -45.016223 
0.000000 0.000000 0.000000 47.579880 -3.143633 33.308678 6.051420 31.768251 -24.516245 3.064248 26.436042 -44.191109 
0.000000 0.000000 0.000000 49.626669 -2.638639 34.687416 7.066659 31.201636 -24.968445 13.153975 20.001917 -42.027800 
0.000000 0.000000 0.000000 51.549849 -2.116251 35.973391 8.022791 30.655924 -25.385588 24.159675 13.420361 -38.370193 
0.000000 0.000000 0.000000 53.340366 -1.587993 37.161509 8.915919 30.135580 -25.767382 35.852343 7.385116 -33.297381 
0.000000 0.000000 0.000000 54.990290 -1.065291 38.247809 9.742244 29.645029 -26.113705 47.800433 2.546152 -27.180693 
0.000000 0.000000 0.000000 56.492669 -0.559253 39.229267 10.498069 29.188646 -26.424528 59.399526 -0.731665 -20.625875 
0.000000 0.000000 0.000000 57.841218 -0.080538 40.103555 11.179748 28.770748 -26.699877 70.037115 -2.474841 -14.282684 
0.000000 0.000000 0.000000 59.030156 0.360773 40.868775 11.783598 28.395579 -26.939801 79.278409 -3.005450 -8.639464 
0.000000 0.000000 0.000000 60.053871 0.755229 41.523271 12.305889 28.067317 -27.144234 86.935761 -2.750951 -3.940407 
0.000000 0.000000 0.000000 60.906675 1.094065 42.065270 12.742800 27.790049 -27.313027 93.013537 -2.098556 -0.232340 
0.000000 0.000000 0.000000 61.582618 1.369249 42.492680 13.090337 27.567760 -27.445841 97.609974 -1.338359 2.542248 
0.000000 0.000000 0.000000 62.075177 1.573457 42.802893 13.344300 27.404345 -27.542050 100.837491 -0.666099 4.468758 
0.000000 0.000000 0.000000 62.376996 1.700122 42.992441 13.500237 27.303606 -27.600788 102.773385 -0.207583 5.614226 
0.000000 0.000000 0.000000 62.479675 1.743480 43.056843 13.553336 27.269226 -27.620727 103.429999 -0.042517 6.001092 
0.000000 0.000000 0.000000 62.479675 1.743480 43.056843 13.553336 27.269226 -27.620727 103.429999 -0.042517 6.001092 
0.000000 0.000000 0.000000 62.479675 1.743480 43.056843 13.553336 27.269226 -27.620727 103.429999 -0.042517 6.001092 
0.000000 0.000000 0.000000 62.479675 1.743480 43.056843 13.553336 27.269226 -27.620727 103.429999 -0.042517 6.001092 
0.000000 0.000000 0.000000 62.479675 1.743480 43.056843 13.553336 27.269226 -27.620727 103.429999 -0.042517 6.001092 
0.000000 0.000000 0.000000 62.479675 1.743480 43.056843 13.553336 27.269226 -27.620727 103.429999 -0.042517 6.001092 
0.000000 0.000000 0.000000 62.479675 1.743480 43.056843 13.553336 27.269226 -27.620727 103.429999 -0.042517 6.001092 
0.000000 0.000000 0.000000 62.479675 1.743480 43.056843 13.553336 27.269226 -27.620727 103.429999 -0.042517 6.001092 
0.000000 0.000000 0.000000 62.479675 1.743480 43.056843 13.553336 27.269226 -27.620727 103.429999 -0.042517 6.001092 
0.000000 0.000000 0.000000 62.479675 1.743480 43.056843 13.553336 27.269226 -27.620727 103.429999 -0.042517 6.001092 
0.000000 0.000000 0.000000 62.479675 1.743480 43.056843 13.553336 27.269226 -27.620727 103.429999 -0.042517 6.001092 
